<svg xmlns="http://www.w3.org/2000/svg" width="67.135px" height="120px" viewBox="0 0 67.135 120">
<g>
	<polygon fill="#1A1A1A" points="67.135,0 0.135,47.009 0.135,47.021 0.135,72.038 0.135,72.05 67.135,119.058 67.135,94.028 
		17.864,59.529 17.932,59.481 17.932,59.481 67.135,25.03 	"/>
	<g>
		<path fill="#FFFFFF" d="M14.051,55.027l-5.367-7.688l1.511-1.055l6.729,2.938l-3.583-5.134l1.443-1.007l5.366,7.688l-1.557,1.087
			l-6.599-2.851l3.5,5.014L14.051,55.027z"/>
		<path fill="#FFFFFF" d="M18.827,46.047c-0.547-0.783-0.888-1.522-1.025-2.217c-0.099-0.514-0.105-1.032-0.02-1.553
			c0.085-0.523,0.255-0.985,0.51-1.386c0.338-0.537,0.82-1.025,1.445-1.461c1.133-0.791,2.285-1.071,3.455-0.844
			c1.17,0.228,2.192,0.968,3.066,2.22c0.866,1.241,1.207,2.447,1.021,3.619c-0.186,1.172-0.843,2.152-1.972,2.94
			c-1.143,0.798-2.296,1.084-3.458,0.857C20.688,47.996,19.681,47.271,18.827,46.047z M20.389,44.879
			c0.607,0.87,1.269,1.39,1.985,1.558c0.715,0.169,1.383,0.037,2.001-0.395c0.619-0.432,0.971-1.009,1.057-1.732
			c0.085-0.723-0.183-1.529-0.805-2.421c-0.615-0.882-1.268-1.404-1.957-1.568c-0.688-0.163-1.352-0.022-1.992,0.425
			s-1.003,1.025-1.088,1.737C19.506,43.196,19.772,43.994,20.389,44.879z"/>
		<path fill="#FFFFFF" d="M30.124,43.808l-5.366-7.688l2.323-1.621l5.055,4.271l-2.281-6.207l2.329-1.626l5.367,7.689l-1.443,1.006
			l-4.224-6.052l2.697,7.117l-1.494,1.043l-5.745-4.99l4.224,6.052L30.124,43.808z"/>
		<path fill="#FFFFFF" d="M39.045,37.582l-5.366-7.688l1.552-1.083l5.366,7.688L39.045,37.582z"/>
		<path fill="#FFFFFF" d="M42.091,35.455l-5.366-7.688l1.511-1.053l6.73,2.937l-3.583-5.135l1.44-1.005l5.367,7.688l-1.558,1.085
			l-6.599-2.849l3.499,5.012L42.091,35.455z"/>
		<path fill="#FFFFFF" d="M49.832,30.053l-5.366-7.688l5.7-3.98l0.908,1.301l-4.148,2.894l1.189,1.707l3.859-2.695l0.904,1.295
			l-3.859,2.693l1.46,2.092l4.295-2.996l0.904,1.293L49.832,30.053z"/>
		<path fill="#FFFFFF" d="M56.995,25.052l-5.365-7.688l5.699-3.979l0.907,1.302l-4.147,2.895l1.189,1.704l3.86-2.693l0.904,1.295
			l-3.86,2.693l1.461,2.094l4.295-3l0.904,1.295L56.995,25.052z"/>
	</g>
	<g>
		<g>
			<g>
				<rect x="36.02" y="86.855" fill="#FFFFFF" width="0" height="0.004"/>
				<polygon fill="#FFFFFF" points="36.02,86.855 36.02,86.855 36.02,86.855 				"/>
				<polygon fill="#FFFFFF" points="36.02,86.855 36.02,86.855 36.02,86.855 				"/>
				<polygon fill="#FFFFFF" points="34.517,81.184 34.516,81.183 32.35,84.294 32.35,84.294 32.35,84.294 35.463,86.462 				"/>
				<polygon fill="#FFFFFF" points="34.516,81.183 34.517,81.184 34.525,81.183 34.525,81.183 34.516,81.183 				"/>
				<polygon fill="#FFFFFF" points="34.516,81.183 34.057,78.518 34.057,78.512 31.401,78.987 31.879,81.642 				"/>
				<polygon fill="#FFFFFF" points="35.44,86.453 37.607,83.335 34.477,81.155 35.437,86.453 35.44,86.453 				"/>
				<polygon fill="#FFFFFF" points="35.44,86.453 35.441,86.455 35.917,89.105 38.571,88.633 38.094,85.977 37.551,86.073 				"/>
				<polygon fill="#FFFFFF" points="34.525,81.183 39.83,80.227 36.698,78.046 34.057,78.512 34.057,78.518 34.516,81.183 				"/>
				<g>
					<polygon fill="#FFFFFF" points="35.44,86.453 37.551,86.073 38.094,85.977 37.607,83.335 35.44,86.453 35.44,86.453 
						35.44,86.453 35.44,86.453 35.437,86.453 30.141,87.396 33.274,89.575 35.916,89.105 35.441,86.455 35.44,86.453 					"/>
					<polygon fill="#FFFFFF" points="34.516,81.183 31.879,81.642 31.879,81.642 32.35,84.294 34.516,81.183 					"/>
				</g>
			</g>
			<g>
				<rect x="28.434" y="81.575" fill="#FFFFFF" width="0" height="0.004"/>
				<polygon fill="#FFFFFF" points="28.434,81.575 28.434,81.575 28.434,81.575 				"/>
				<polygon fill="#FFFFFF" points="28.434,81.575 28.434,81.575 28.434,81.575 				"/>
				<polygon fill="#FFFFFF" points="26.929,75.901 26.928,75.901 24.762,79.013 24.762,79.013 24.762,79.013 27.876,81.18 				"/>
				<polygon fill="#FFFFFF" points="26.928,75.901 26.929,75.901 26.939,75.901 26.938,75.9 26.928,75.901 				"/>
				<polygon fill="#FFFFFF" points="26.928,75.901 26.47,73.238 26.47,73.231 23.814,73.706 24.293,76.36 				"/>
				<polygon fill="#FFFFFF" points="26.938,75.9 32.244,74.944 29.111,72.766 26.47,73.231 26.47,73.238 26.928,75.901 				"/>
				<polygon fill="#FFFFFF" points="27.854,81.172 30.02,78.054 26.891,75.876 27.851,81.172 27.854,81.172 				"/>
				<polygon fill="#FFFFFF" points="27.854,81.172 27.854,81.176 28.329,83.824 30.984,83.351 30.507,80.694 29.965,80.793 				"/>
				<g>
					<polygon fill="#FFFFFF" points="27.854,81.172 29.965,80.793 30.507,80.694 30.02,78.054 27.854,81.172 27.854,81.172 
						27.854,81.172 27.854,81.172 27.851,81.172 22.555,82.115 25.688,84.296 28.329,83.825 27.854,81.176 27.854,81.172 					"/>
					<polygon fill="#FFFFFF" points="26.928,75.901 24.293,76.36 24.293,76.36 24.762,79.013 26.928,75.901 					"/>
				</g>
			</g>
			<g>
				<g>
					<rect x="17.113" y="73.699" fill="#FFFFFF" width="0" height="0.004"/>
					<polygon fill="#FFFFFF" points="17.115,73.7 17.115,73.7 17.115,73.7 					"/>
					<polygon fill="#FFFFFF" points="17.115,73.7 17.115,73.7 17.115,73.7 					"/>
					<g>
						<polygon fill="#FFFFFF" points="17.115,73.7 19.286,70.587 22.416,72.767 17.116,73.704 17.115,73.7 						"/>
					</g>
					<polygon fill="#FFFFFF" points="22.957,73.143 22.957,73.142 22.956,73.133 22.956,73.133 22.957,73.143 					"/>
					<g>
						<polygon fill="#FFFFFF" points="17.115,73.7 17.111,73.702 14.461,74.176 13.983,71.522 16.641,71.047 16.737,71.591 						
							"/>
					</g>
					<g>
						<polygon fill="#FFFFFF" points="19.782,73.232 19.286,70.587 21.958,70.095 22.055,70.633 22.438,72.761 						"/>
					</g>
					<g>
						<polygon fill="#FFFFFF" points="17.115,73.7 16.737,71.591 16.641,71.047 19.286,70.587 17.115,73.7 17.115,73.7 17.115,73.7 
							17.115,73.7 17.116,73.704 18.07,78.997 14.938,76.817 14.461,74.176 17.111,73.702 17.115,73.7 						"/>
					</g>
				</g>
				<polygon fill="#FFFFFF" points="22.425,72.764 27.73,71.809 24.598,69.627 21.956,70.095 21.956,70.1 22.415,72.765 				"/>
			</g>
		</g>
		<path fill="#FFFFFF" d="M36.904,92.107l6.525-9.375l3.166,2.202c1.276,0.89,2.154,1.785,2.632,2.686
			c0.477,0.901,0.677,1.875,0.599,2.925c-0.081,1.05-0.424,2.014-1.036,2.892c-0.436,0.627-0.976,1.144-1.617,1.55
			c-0.64,0.403-1.337,0.668-2.087,0.79c-0.768,0.13-1.535,0.1-2.299-0.094c-0.451-0.107-0.841-0.24-1.17-0.398
			c-0.328-0.159-0.909-0.529-1.742-1.108L36.904,92.107z M45.623,86.032l-1.681-1.169l-4.861,6.983l1.721,1.198
			c0.673,0.468,1.226,0.784,1.662,0.952c0.437,0.167,0.827,0.265,1.174,0.298c0.348,0.032,0.695,0.017,1.044-0.046
			c1.132-0.211,2.056-0.828,2.769-1.854c0.702-1.009,0.934-2.068,0.695-3.179c-0.085-0.411-0.237-0.806-0.456-1.185
			c-0.219-0.38-0.456-0.694-0.714-0.945C46.718,86.833,46.268,86.481,45.623,86.032z"/>
		<path fill="#FFFFFF" d="M55.68,91.258l0.938,0.653l-2.346,12.285l-1.366-0.95l0.68-3.628l-3.977-2.769l-3.089,1.952l-1.37-0.955
			L55.68,91.258z M53.865,98.049l0.847-4.425l-3.746,2.406L53.865,98.049z"/>
	</g>
</g>
</svg>
